<?xml version="1.0" encoding="UTF-8" standalone="no"?>
<svg xmlns="http://www.w3.org/2000/svg" xmlns:xlink="http://www.w3.org/1999/xlink" width="64" height="64">
  <linearGradient id="a">
    <stop offset="0" stop-color="#fff"/>
    <stop offset="1" stop-color="#d5d4d4"/>
  </linearGradient>
  <linearGradient id="c">
    <stop offset="0" stop-color="#ff0d00"/>
    <stop offset=".746" stop-color="#ff3900"/>
    <stop offset="1" stop-color="#d05521"/>
  </linearGradient>
  <linearGradient id="d">
    <stop offset="0" stop-color="#7d7d7d"/>
    <stop offset="1"/>
  </linearGradient>
  <linearGradient id="e">
    <stop offset="0"/>
    <stop offset="1" stop-opacity="0"/>
  </linearGradient>
  <linearGradient id="f">
    <stop offset="0" stop-color="#ff8b00"/>
    <stop offset="1" stop-color="#4d0200"/>
  </linearGradient>
  <linearGradient id="b">
    <stop offset="0" stop-color="#fff"/>
    <stop offset="1" stop-color="#fff" stop-opacity="0"/>
  </linearGradient>
  <radialGradient id="g" cx="86.514" cy="332.373" r="83.26" gradientTransform="matrix(.213776 -.01488243 0 .141649 7.587243 -13.64974)" gradientUnits="userSpaceOnUse" xlink:href="#a"/>
  <linearGradient id="h" x1="86.514" x2="73.286" y1="335.761" y2="247.073" gradientTransform="matrix(.213776 -.01488243 0 .141649 7.587243 -13.64974)" gradientUnits="userSpaceOnUse" xlink:href="#b"/>
  <linearGradient id="i" x1="132.73" x2="84.004" y1="279.475" y2="210.463" gradientTransform="matrix(.148555 -.01034192 0 .203839 7.587243 -13.64974)" gradientUnits="userSpaceOnUse" xlink:href="#a"/>
  <linearGradient id="j" x1="136.557" x2="54.608" y1="213.436" y2="250.543" gradientTransform="matrix(.148555 -.01034192 0 .203839 7.587243 -13.64974)" gradientUnits="userSpaceOnUse" xlink:href="#b"/>
  <linearGradient id="k" x1="145.422" x2="198.285" y1="264.702" y2="218.749" gradientTransform="matrix(.148555 -.01034192 0 .203839 7.587243 -13.64974)" gradientUnits="userSpaceOnUse" xlink:href="#a"/>
  <linearGradient id="l" x1="159.182" x2="184.119" y1="219.685" y2="234.354" gradientTransform="matrix(.137376 -.0095637 0 .220427 7.587243 -13.64974)" gradientUnits="userSpaceOnUse" xlink:href="#b"/>
  <linearGradient id="m" x1="36.607" x2="28.654" y1="4.884" y2="47.245" gradientTransform="matrix(.966397 -.06727759 0 .619743 10.91416 -.430682)" gradientUnits="userSpaceOnUse" xlink:href="#c"/>
  <linearGradient id="n" x1="134.593" x2="126.826" y1="300.555" y2="189.893" gradientTransform="matrix(.217299 -.01512773 0 .139352 7.587243 -13.64974)" gradientUnits="userSpaceOnUse" xlink:href="#b"/>
  <linearGradient id="o" x1="77.83" x2="40.121" y1="43.692" y2="18.128" gradientTransform="matrix(.660667 -.04599357 0 .906535 10.91416 -.430682)" gradientUnits="userSpaceOnUse" xlink:href="#c"/>
  <linearGradient id="p" x1="188.097" x2="269.306" y1="173.354" y2="220.313" gradientTransform="matrix(.165487 -.01152071 0 .182982 7.587243 -13.64974)" gradientUnits="userSpaceOnUse" xlink:href="#b"/>
  <linearGradient id="q" x1="138.685" x2="90.955" y1="221.05" y2="574.67" gradientTransform="matrix(.198922 -.01384834 0 .171745 7.587243 -14.29213)" gradientUnits="userSpaceOnUse" spreadMethod="reflect" xlink:href="#d"/>
  <linearGradient id="r" x1="124.513" x2="99.415" y1="199.205" y2="224.954" gradientTransform="matrix(.207236 -.0144272 0 .146119 7.587247 -10.30339)" gradientUnits="userSpaceOnUse" xlink:href="#e"/>
  <linearGradient id="s" x1="163.743" x2="137.31" y1="301.157" y2="301.158" gradientTransform="matrix(.207236 -.0144272 0 .146119 7.587247 -10.30339)" gradientUnits="userSpaceOnUse" xlink:href="#e"/>
  <radialGradient id="t" cx="145.828" cy="265.9" r="24.113" gradientTransform="matrix(.214121 -.01490648 0 .141421 7.587247 -10.30339)" gradientUnits="userSpaceOnUse">
    <stop offset="0" stop-color="#fff" stop-opacity=".475"/>
    <stop offset=".5" stop-color="#fff" stop-opacity=".258"/>
    <stop offset="1" stop-color="#fff" stop-opacity=".108"/>
  </radialGradient>
  <linearGradient id="u" x1="119.803" x2="129.065" y1="179.833" y2="189.546" gradientTransform="matrix(.229385 -.01606838 .01314509 .148017 6.523484 -15.47198)" gradientUnits="userSpaceOnUse" spreadMethod="reflect" xlink:href="#f"/>
  <linearGradient id="v" x1="119.803" x2="129.065" y1="179.833" y2="189.546" gradientTransform="matrix(.229385 -.01606838 .01314509 .148017 10.60571 -12.79916)" gradientUnits="userSpaceOnUse" spreadMethod="reflect" xlink:href="#f"/>
  <linearGradient id="w" x1="119.803" x2="129.065" y1="179.833" y2="189.546" gradientTransform="matrix(.229385 -.01606838 .01314509 .148017 14.63618 -10.20351)" gradientUnits="userSpaceOnUse" spreadMethod="reflect" xlink:href="#f"/>
  <linearGradient id="x" x1="203.795" x2="120.083" y1="203.681" y2="229.926" gradientTransform="matrix(.1902 0 0 .179621 7.587243 -14.29213)" gradientUnits="userSpaceOnUse" spreadMethod="reflect" xlink:href="#f"/>
  <radialGradient id="y" cx="86.514" cy="332.373" r="83.26" gradientTransform="matrix(.213776 -.01488243 0 .141649 7.587243 -13.64974)" gradientUnits="userSpaceOnUse" xlink:href="#d"/>
  <linearGradient id="z" x1="24.254" x2="189.539" y1="213.059" y2="213.059" gradientTransform="matrix(.251838 0 0 .135659 7.587247 -14.29214)" gradientUnits="userSpaceOnUse" xlink:href="#b"/>
  <linearGradient id="A" x1="145.422" x2="198.285" y1="264.702" y2="218.749" gradientTransform="matrix(.148555 -.01034192 0 .203839 7.587243 -13.64974)" gradientUnits="userSpaceOnUse" xlink:href="#d"/>
  <linearGradient id="B" x1="132.73" x2="84.004" y1="279.475" y2="210.463" gradientTransform="matrix(.148555 -.01034192 0 .203839 7.587243 -13.64974)" gradientUnits="userSpaceOnUse" xlink:href="#d"/>
  <linearGradient id="C" x1="42.081" x2="88.821" y1="215.05" y2="172.018" gradientTransform="matrix(.138296 0 0 .247035 7.587247 -14.29214)" gradientUnits="userSpaceOnUse" xlink:href="#b"/>
  <linearGradient id="D" x1="149.748" x2="144.137" y1="120.636" y2="216.482" gradientTransform="matrix(.251838 0 0 .135659 7.587247 -14.29214)" gradientUnits="userSpaceOnUse" xlink:href="#b"/>
  <g transform="matrix(1.223235 0 0 1.223235 -13.50692 1.184487)">
    <g stroke-linecap="round" stroke-linejoin="round">
      <g fill="none" stroke="#000" stroke-opacity=".036" transform="matrix(.696199 0 0 .708248 21.27651 37.84947)">
        <path stroke-width="8.475" d="m31.44357-46.786978 20.013287 11.782427.02267 13.751831-41.949656 27.6790862-19.862161-11.716782-.094076-13.9904392z"/>
        <path stroke-width="7.516" d="m31.44357-46.786978 20.013287 11.782427.02267 13.751831-41.949656 27.6790862-19.862161-11.716782-.094076-13.9904392z"/>
        <path stroke-width="6.663" d="m31.44357-46.786978 20.013287 11.782427.02267 13.751831-41.949656 27.6790862-19.862161-11.716782-.094076-13.9904392z"/>
        <path stroke-width="5.704" d="m31.44357-46.786978 20.013287 11.782427.02267 13.751831-41.949656 27.6790862-19.862161-11.716782-.094076-13.9904392z"/>
        <path stroke-width="4.744" d="m31.44357-46.786978 20.013287 11.782427.02267 13.751831-41.949656 27.6790862-19.862161-11.716782-.094076-13.9904392z"/>
        <path stroke-width="3.998" d="m31.44357-46.786978 20.013287 11.782427.02267 13.751831-41.949656 27.6790862-19.862161-11.716782-.094076-13.9904392z"/>
        <path stroke-width="3.145" d="m31.44357-46.786978 20.013287 11.782427.02267 13.751831-41.949656 27.6790862-19.862161-11.716782-.094076-13.9904392z"/>
        <path stroke-width="2.292" d="m31.44357-46.786978 20.013287 11.782427.02267 13.751831-41.949656 27.6790862-19.862161-11.716782-.094076-13.9904392z"/>
      </g>
      <path fill="url(#g)" fill-rule="evenodd" stroke="url(#h)" stroke-width=".649" d="m23.52725 16.908295 14.147776 8.758816-9.727625 6.742527-14.202724-8.70429z"/>
      <path fill="url(#i)" fill-rule="evenodd" stroke="url(#j)" stroke-width=".672" d="m13.651327 33.802483 14.147775 8.621857.148299-10.014702-14.202724-8.70429z"/>
      <path fill="url(#k)" fill-rule="evenodd" stroke="url(#l)" stroke-width=".626" d="m37.600441 35.833072-9.801339 6.591268.148299-10.014702 9.746389-6.673701z"/>
      <path fill="url(#m)" fill-rule="evenodd" stroke="url(#n)" stroke-width=".626" d="m23.52725 16.908295 14.147776 8.758816 19.850762-13.440695-14.202722-8.7042938z"/>
      <path fill="url(#o)" fill-rule="evenodd" stroke="url(#p)" stroke-width=".603" d="m37.600441 35.833072 19.875809-13.553178.148299-10.014702-19.930759 13.470745z"/>
      <path fill="none" stroke="url(#q)" stroke-width=".881" d="m43.352337 3.495598 14.188175 8.626975.016072 10.068953-29.739697 20.26635-14.081036-8.57891-.066694-10.24366z"/>
    </g>
    <path fill="url(#r)" fill-rule="evenodd" d="m23.734387 16.986475 13.714415 8.696385-1.357343.931088-13.573431-8.88506z"/>
    <path fill="url(#r)" fill-rule="evenodd" d="m37.313783 35.763019.135019-10.080159-1.357343.931088.005963 9.891486z"/>
    <path fill="url(#s)" fill-rule="evenodd" d="m37.313783 35.763019.135019-10.080159-1.357343.931088.005963 9.891486z"/>
    <path fill="url(#t)" fill-rule="evenodd" d="m57.115009 12.516946-18.535087 12.155661c-.570185.275531-1.33789.199591-1.710557.004842l-12.866529-7.725028 12.314847 8.181738c.183894.327152.02213.952281-.337152 1.180293l-8.259354 6.110935 8.596506-5.618039c.522501-.375058.649967.190439.678671.580202l.423743 8.322418.585-9.020095c.020118-.511004.385892-1.091723.801049-1.310655z"/>
    <path fill="url(#u)" fill-rule="evenodd" d="m28.382239 16.190139 2.346124 1.508033 14.950211-10.5642722-2.381197-1.4698648z" opacity=".451"/>
    <path fill="url(#v)" fill-rule="evenodd" d="m34.354677 17.707185 2.346123 1.508032 13.059987-9.4084875-2.381196-1.469864z" opacity=".451"/>
    <path fill="url(#w)" fill-rule="evenodd" d="m40.470919 18.807103 2.346123 1.508033 10.974225-7.912766-2.381196-1.469864z" opacity=".451"/>
    <path fill="none" stroke="url(#x)" stroke-linecap="round" stroke-width=".936" d="m23.685829 16.889742 19.644793-13.3870954 14.25677 8.6735714-.129904 10.091849-19.782462 13.464862"/>
    <path fill="url(#y)" fill-rule="evenodd" stroke="url(#h)" stroke-linecap="round" stroke-linejoin="round" stroke-width=".649" d="m23.52725 16.908295 14.147776 8.758816-9.727625 6.742527-14.202724-8.70429z" opacity=".091"/>
    <path fill="url(#z)" fill-rule="evenodd" d="m43.358168 3.5906688c4.004854 2.5188101 7.957463 4.8468831 11.962318 7.3656912-3.528925 3.01278-10.137799 2.481444-16.518154 2.715517-6.315176.234075-18.202851 5.924686-21.372892 12.150424-1.244714-.786561-2.349757-1.405011-3.594471-2.191573 9.870208-6.687567 19.65299-13.352492 29.523199-20.0400592z"/>
    <path fill="url(#A)" fill-rule="evenodd" stroke="url(#l)" stroke-linecap="round" stroke-linejoin="round" stroke-width=".626" d="m37.600441 35.833072-9.801339 6.591268.148299-10.014702 9.746389-6.673701z" opacity=".099"/>
    <path fill="url(#B)" fill-rule="evenodd" stroke="url(#j)" stroke-linecap="round" stroke-linejoin="round" stroke-width=".672" d="m13.651327 33.802483 14.147775 8.621857.148299-10.014702-14.202724-8.70429z" opacity=".15"/>
    <path fill="url(#C)" fill-rule="evenodd" d="m13.844539 33.722286c4.004855 2.518811 3.642648 2.454104 8.625203 5.51681.447059-3.514006-5.194443-8.152669-5.040302-13.416795-1.244714-.786561-2.346892-1.414729-3.591606-2.201286-.155343 3.113818.020227 8.643061.006705 10.101271z"/>
    <path fill="url(#D)" fill-rule="evenodd" d="m43.3711 3.6038926c4.004855 2.51881 7.944531 4.8336593 11.949386 7.3524674-3.528925 3.01278-10.137799 2.481444-16.518154 2.715517-6.315176.234075-18.202851 5.924686-21.372892 12.150424-1.244714-.786561-2.033167-1.573117-3.277882-2.359674 9.870208-6.687567 19.349334-13.171168 29.219542-19.8587344z"/>
  </g>
</svg>
