<svg version="1.1" viewBox="0.0 0.0 160.31233595800524 240.18635170603673" fill="none" stroke="none" stroke-linecap="square" stroke-miterlimit="10" xmlns:xlink="http://www.w3.org/1999/xlink" xmlns="http://www.w3.org/2000/svg"><clipPath id="p.0"><path d="m0 0l160.31233 0l0 240.18636l-160.31233 0l0 -240.18636z" clip-rule="nonzero"/></clipPath><g clip-path="url(#p.0)"><path fill="#000000" fill-opacity="0.0" d="m0 0l160.31233 0l0 240.18636l-160.31233 0z" fill-rule="evenodd"/><path fill="#000000" fill-opacity="0.0" d="m98.72495 25.196304c-19.222221 8.024933 -59.34689 23.513123 -71.66404 33.59055c-12.317148 10.077427 -0.185915 8.958004 -2.2388458 26.87402c-2.0529308 17.916008 -9.145232 57.29396 -10.07874 80.62204c-0.9335089 23.328094 -4.2935257 55.2406 4.4776907 59.346466c8.771215 4.10585 40.870953 -21.461075 48.14961 -34.71129c7.2786484 -13.250214 -7.2773438 -33.032806 -4.4776917 -44.790024c2.799652 -11.757217 11.571304 -21.647423 21.275589 -25.753288c9.704285 -4.105858 27.618988 5.223976 36.950134 1.1181107c9.331139 -4.105858 18.476814 -15.8622055 19.036736 -25.75328c0.5599365 -9.891075 -17.730087 -23.328957 -15.677162 -33.593174c2.0529327 -10.264217 25.00875 -19.40726 27.994759 -27.992126c2.9859924 -8.584864 -1.1207428 -22.02406 -10.078751 -23.51706c-8.957993 -1.493001 -24.44706 6.5341206 -43.66929 14.559055z" fill-rule="evenodd"/><path stroke="#0000ff" stroke-width="3.0" stroke-linejoin="round" stroke-linecap="butt" d="m98.72495 25.196304c-19.222221 8.024933 -59.34689 23.513123 -71.66404 33.59055c-12.317148 10.077427 -0.185915 8.958004 -2.2388458 26.87402c-2.0529308 17.916008 -9.145232 57.29396 -10.07874 80.62204c-0.9335089 23.328094 -4.2935257 55.2406 4.4776907 59.346466c8.771215 4.10585 40.870953 -21.461075 48.14961 -34.71129c7.2786484 -13.250214 -7.2773438 -33.032806 -4.4776917 -44.790024c2.799652 -11.757217 11.571304 -21.647423 21.275589 -25.753288c9.704285 -4.105858 27.618988 5.223976 36.950134 1.1181107c9.331139 -4.105858 18.476814 -15.8622055 19.036736 -25.75328c0.5599365 -9.891075 -17.730087 -23.328957 -15.677162 -33.593174c2.0529327 -10.264217 25.00875 -19.40726 27.994759 -27.992126c2.9859924 -8.584864 -1.1207428 -22.02406 -10.078751 -23.51706c-8.957993 -1.493001 -24.44706 6.5341206 -43.66929 14.559055z" fill-rule="evenodd"/></g></svg>