<?xml version="1.0" encoding="UTF-8" standalone="no"?>
<svg xmlns="http://www.w3.org/2000/svg" xmlns:xlink="http://www.w3.org/1999/xlink" width="64" height="64">
  <linearGradient id="a">
    <stop offset="0" stop-color="#fff"/>
    <stop offset="1" stop-color="#fff" stop-opacity="0"/>
  </linearGradient>
  <linearGradient id="b" x1="351.571" x2="176.996" y1="50.663" y2="218.633" gradientTransform="scale(.999857 1.000143)" gradientUnits="userSpaceOnUse">
    <stop offset="0" stop-color="#00ff01"/>
    <stop offset="1" stop-color="#15980f"/>
  </linearGradient>
  <radialGradient id="c" cx="78.732" cy="52.096" r="219.061" gradientTransform="scale(.999855 1.000145)" gradientUnits="userSpaceOnUse">
    <stop offset="0" stop-color="#00ad01"/>
    <stop offset="1" stop-color="#15720f"/>
  </radialGradient>
  <radialGradient id="d" cx="232.069" cy="333.002" r="105.996" gradientTransform="scale(.999851 1.000149)" gradientUnits="userSpaceOnUse" xlink:href="#a"/>
  <linearGradient id="e" x1="23.488" x2="261.133" y1="34.216" y2="362.303" gradientTransform="matrix(1.048333 0 0 .953895 3.135114 2.949073)" gradientUnits="userSpaceOnUse" xlink:href="#a"/>
  <g transform="matrix(.183478 0 0 .183422 -3.249248 -3.789298)">
    <path fill="url(#b)" stroke="url(#c)" stroke-linejoin="round" stroke-width="6.139" d="m142.81029 27.138041c-5.95605 0-10.75 5.3957-10.75 12.09375v88.937499h-97.125005c-5.956046 0-10.75 5.36444-10.75 12.0625v82.8125c0 6.69805 4.793955 12.09375 10.75 12.09375h97.125005v94.0625c0 6.69805 4.79395 12.09374 10.75 12.09375h78.46875c5.95605 0 10.75-5.3957 10.75-12.09375v-94.0625h95.46875c5.95605 0 10.74998-5.3957 10.75-12.09375v-82.8125c0-6.69805-4.79395-12.0625-10.75-12.0625h-95.46875v-88.937499c0-6.698052-4.79395-12.09375-10.75-12.09375z"/>
    <path fill="url(#d)" d="m142.81028 27.138041c-5.95605 0-10.75 5.3957-10.75 12.09375v88.937499h-97.124995c-5.956046 0-10.75 5.36444-10.75 12.0625v82.8125c0 6.69805 4.793955 12.09375 10.75 12.09375h101.196315v91.61971c0 6.69805 4.79395 12.09374 10.75 12.09375l71.95464.81426c5.95605 0 10.75-5.3957 10.75-12.09375l1.62853-93.24823 96.28301.81426c5.95605 0 10.74998-5.3957 10.75-12.09375v-82.8125c0-6.69805-4.79395-12.0625-10.75-12.0625h-95.46875v-88.937499c0-6.698052-4.79395-12.09375-10.75-12.09375z"/>
    <path fill="url(#e)" fill-rule="evenodd" d="m231.94349 127.15556c-.31207-28.606897-.62414-57.21378-.93621-85.820664 1.9406-4.506544-4.26145-11.455883-8.83497-11.076839-26.58257.271421-50.72235.542843-77.30492.814264-6.80228-.650465-11.16177 5.213187-10.63567 10.262575.27142 29.527558-.27141 59.055124.00001 88.582684-32.15927 0-63.504275 0-95.663545 0-7.7397 1.01993-12.222342 10.99676-11.005131 17.71654.271422 23.62205.542843 25.25894.814265 48.88099 1.899952 35.50721 207.366071-25.88308 203.566171-69.35955z"/>
  </g>
</svg>
