<?xml version="1.0" encoding="UTF-8" standalone="no"?>
<svg xmlns="http://www.w3.org/2000/svg" xmlns:xlink="http://www.w3.org/1999/xlink" width="64" height="64">
  <linearGradient id="c">
    <stop offset="0"/>
    <stop offset="1" stop-opacity="0"/>
  </linearGradient>
  <linearGradient id="a">
    <stop offset="0" stop-color="#e6e6e6"/>
    <stop offset="1" stop-color="#e6e6e6" stop-opacity="0"/>
  </linearGradient>
  <linearGradient id="e" x1="33.332" x2="33.332" y1="10.305" y2="91.408" gradientUnits="userSpaceOnUse">
    <stop offset="0" stop-color="#e6e6e6"/>
    <stop offset="1" stop-color="#545477"/>
  </linearGradient>
  <linearGradient id="d">
    <stop offset="0" stop-color="#e6e6e6"/>
    <stop offset="1" stop-color="#9696a6"/>
  </linearGradient>
  <linearGradient id="b">
    <stop offset="0" stop-color="#ff8b00"/>
    <stop offset="1" stop-color="#4d0200"/>
  </linearGradient>
  <linearGradient id="s" x1="218.927" x2="280.95" y1="35.122" y2="79.265" gradientTransform="matrix(.15978 -.05480654 .06550999 .172518 -6.760011 11.2421)" gradientUnits="userSpaceOnUse" xlink:href="#a"/>
  <linearGradient id="q" x1="16.766" x2="50.005" y1="52.815" y2="98.57" gradientTransform="matrix(.158469 .05462662 -.111601 .462186 38.66842 -20.29144)" gradientUnits="userSpaceOnUse">
    <stop offset="0" stop-color="#ff7d00"/>
    <stop offset=".746" stop-color="#ffbe00"/>
    <stop offset="1" stop-color="#ff0"/>
  </linearGradient>
  <linearGradient id="r" x1="43.655" x2="9.268" y1="80.597" y2="41.066" gradientTransform="matrix(.152169 .05245538 -.11622 .481316 38.66842 -20.29144)" gradientUnits="userSpaceOnUse" xlink:href="#b"/>
  <linearGradient id="p" x1="66.375" x2="59.588" y1="87.975" y2="94.721" gradientTransform="matrix(.117253 -1.406692 .423959 1.195497 -4.039921 11.22312)" gradientUnits="userSpaceOnUse" xlink:href="#c"/>
  <linearGradient id="o" x1="33.73" x2="24.315" y1="25.615" y2="36.675" gradientTransform="matrix(.783969 -.27007 .296908 .83724 -4.03992 11.22312)" gradientUnits="userSpaceOnUse" xlink:href="#c"/>
  <radialGradient id="n" cx="131.229" cy="19.851" r="13.347" fx="131.311" fy="20.269" gradientTransform="matrix(.275035 .0910503 -.02384048 .08417708 -2.086178 11.64483)" gradientUnits="userSpaceOnUse" xlink:href="#c"/>
  <linearGradient id="m" x1="52.987" x2="89.495" y1="210.483" y2="374.57" gradientTransform="matrix(.275611 .02606714 -.0179465 .08252123 15.04372 -.270484)" gradientUnits="userSpaceOnUse" xlink:href="#a"/>
  <radialGradient id="l" cx="43.058" cy="27.18" r="5.187" gradientTransform="matrix(.764112 -.183678 .22799 .909134 -4.039921 11.22312)" gradientUnits="userSpaceOnUse">
    <stop offset="0" stop-color="#ff7d00"/>
    <stop offset=".254" stop-color="#ffbe00"/>
    <stop offset="1" stop-color="#ff0"/>
  </radialGradient>
  <linearGradient id="k" x1="163.691" x2="40.448" y1="378.028" y2="177.924" gradientTransform="matrix(.232774 .02201535 -.02124904 .09770729 15.04372 -.270484)" gradientUnits="userSpaceOnUse" xlink:href="#d"/>
  <linearGradient id="j" x1="290.28" x2="350.72" y1="124.522" y2="175.206" gradientTransform="matrix(.111878 .01058137 -.04421023 .20329 15.04372 -.270484)" gradientUnits="userSpaceOnUse" xlink:href="#e"/>
  <linearGradient id="h" x1="56.118" x2="113.129" y1="107.502" y2="260.718" gradientTransform="matrix(.189466 .01791926 -.02610632 .120041 15.04372 -.270481)" gradientUnits="userSpaceOnUse" xlink:href="#d"/>
  <linearGradient id="i" x1="46.488" x2="24.291" y1="38.46" y2="9.93" gradientTransform="matrix(1.085065 .102623 -.14951 .687472 -4.263307 10.70388)" gradientUnits="userSpaceOnUse" xlink:href="#e"/>
  <linearGradient id="f" x1="212.074" x2="225.347" y1="203.832" y2="79.477" gradientTransform="matrix(.183675 .01737175 -.03614585 .166205 -6.814903 12.99139)" gradientUnits="userSpaceOnUse">
    <stop offset="0" stop-color="#ff0"/>
    <stop offset="1" stop-color="#ff8c00"/>
  </linearGradient>
  <linearGradient id="g" x1="45.889" x2="46.078" y1="68.309" y2="22.841" gradientTransform="matrix(.893069 .0844665 -.175752 .808126 -4.039921 11.22312)" gradientUnits="userSpaceOnUse" xlink:href="#b"/>
  <path fill="none" stroke="#000" stroke-linejoin="round" stroke-opacity=".039" stroke-width="2.893" d="m38.328747 1.3560266c-.393056-.0015887-.745458.0836441-.993136.2660742-.671806.4948252-1.302305 1.410228-1.954875 2.5480593-1.305149 2.2756653-2.56046 5.614788-3.486897 9.4515479-.529307 2.192071-.687118 4.296308-.741117 6.275868l-5.915074-2.789112-7.058547 3.884258-1.524683 6.710316.006467.02579-.176867 1.519093c-1.252705 5.494857-3.203753 12.855639-5.473813 15.097183l.979259 1.569312 1.118631-.432962.711046 1.278313 1.558412 1.320717 1.757734-.887374.058642.122625-.01337.057902.267341.50996.01337-.057901.664031 1.535709 1.473536-.463586.006467.025791-.033209.090014.241471.406804.065476 1.706933.850348.944043.916033-2.35303.221564 2.106918 1.63006-.173082.641578 2.224707 1.905175.034226.466958 1.528393.906515-1.612453.228538.355224.033209-.090014.045707.071045.306581.555216 1.239698 2.162963.593396-.525456.182831.284178.066415-.180029.032773.019466.096505 2.164324 1.889261-.918989 2.076883-1.8391-.999672 1.908288 3.760861-2.353271.072449-.044758.826221.402961c1.386274-1.98415 5.538693-9.409221 7.934016-15.852634l.368709-.198006 1.530209-4.797563-.171203.095841 1.459136-6.749249-6.892225-3.237825c.009489-.005659.043436-.006902.05261-.012646l-3.600274-1.677559-.504961-.23409c.973745-1.884353 1.935675-3.979598 2.548847-6.519001.926437-3.836763 1.346209-7.471233 1.256172-10.2278393-.04502-1.3783053-.252102-2.5343518-.518628-3.4027108-.275772-.8984903-1.823425-1.6250558-3.00259-1.6298223z"/>
  <path fill="none" stroke="#000" stroke-linejoin="round" stroke-opacity=".039" stroke-width="1.428" d="m38.501591 1.394479c-.393055-.0015889-.745457.0836439-.993135.2660741-.671806.4948253-1.302304 1.4102277-1.954876 2.5480595-1.305146 2.2756646-2.560458 5.6147873-3.486895 9.4515484-.529306 2.192071-.687119 4.296308-.741118 6.275867l-5.915074-2.789112-7.058547 3.884258-1.524681 6.710316.006467.02579-.176868 1.519093c-1.252705 5.494857-3.203752 12.85564-5.473813 15.097184l.979259 1.569312 1.11863-.432962.711046 1.278311 1.558412 1.320718 1.757733-.887372.058643.122623-.013371.057902.267342.509961.013372-.057902.664031 1.535709 1.473534-.463584.006467.025789-.033209.090015.241473.406803.065475 1.706934.850349.944042.916031-2.35303.221564 2.106918 1.630059-.173081.641579 2.224707 1.905175.034225.46696 1.528394.906513-1.612454.228538.355225.033208-.090015.045708.071045.306582.555216 1.239699 2.162963.593394-.525457.18283.28418.066417-.18003.032773.019466.096506 2.164325 1.889259-.91899 2.076885-1.839099-.999674 1.908287 3.760861-2.35327.07245-.04476.82622.402961c1.386275-1.984148 5.538693-9.409219 7.934016-15.852633l.36871-.198007 1.530207-4.797563-.171202.095842 1.459136-6.749249-6.892223-3.237824c.009486-.00566.043434-.006903.052611-.012647l-3.600276-1.677559-.504961-.234089c.973743-1.884353 1.935674-3.979598 2.548847-6.519001.926437-3.836763 1.346207-7.4712327 1.256172-10.2278402-.04502-1.3783053-.252102-2.5343518-.518628-3.4027109-.275773-.8984899-1.823425-1.6250558-3.002592-1.6298219z"/>
  <path fill="none" stroke="#000" stroke-linejoin="round" stroke-opacity=".039" stroke-width="2.252" d="m38.251784 1.3745268c-.393055-.0015887-.745457.0836441-.993135.2660742-.671806.4948252-1.302304 1.4102278-1.954876 2.5480595-1.305147 2.2756649-2.560459 5.6147876-3.486897 9.4515485-.529305 2.19207-.687118 4.296307-.741117 6.275867l-5.915074-2.789111-7.058547 3.884257-1.524681 6.710316.006467.02579-.176869 1.519093c-1.252704 5.494857-3.203752 12.855639-5.473812 15.097184l.979259 1.569311 1.118631-.432961.711046 1.278312 1.558411 1.320717 1.757735-.887373.058642.122624-.013371.057902.267342.50996.013371-.057901.66403 1.535709 1.473536-.463585.006467.02579-.033209.090014.241472.406804.065476 1.706933.850346.944043.916033-2.35303.221565 2.106918 1.63006-.173082.641578 2.224707 1.905175.034226.466958 1.528393.906516-1.612453.228537.355225.033209-.090015.045706.071045.306583.555216 1.239697 2.162963.593395-.525456.18283.284179.066418-.18003.032772.019466.096505 2.164324 1.88926-.918989 2.076884-1.8391-.999673 1.908288 3.760862-2.353271.072449-.044758.826221.402961c1.386274-1.98415 5.538691-9.40922 7.934015-15.852634l.368711-.198006 1.530207-4.797563-.171202.095841 1.459135-6.749249-6.892224-3.237825c.009487-.005658.043436-.006902.052611-.012646l-3.600275-1.677559-.504961-.23409c.973745-1.884353 1.935675-3.979598 2.548845-6.519001.926438-3.836763 1.346209-7.4712324 1.256173-10.2278391-.045019-1.3783053-.2521-2.534352-.518628-3.4027108-.275772-.8984901-1.823423-1.625056-3.00259-1.6298223z"/>
  <path fill="none" stroke="#000" stroke-linejoin="round" stroke-opacity=".039" stroke-width="1.703" d="m38.09786 1.4115272c-.393055-.001589-.745456.0836436-.993135.2660742-.671806.4948252-1.302305 1.410228-1.954876 2.5480593-1.305147 2.2756648-2.560459 5.6147877-3.486896 9.4515483-.529306 2.192071-.687119 4.296307-.741117 6.275867l-5.915074-2.789111-7.058547 3.884257-1.524682 6.710317.006468.025789-.176868 1.519093c-1.252706 5.494858-3.203753 12.855639-5.473814 15.097184l.979259 1.569311 1.118631-.432961.711046 1.278312 1.558413 1.320717 1.757733-.887373.058643.122624-.013371.057903.26734.50996.013371-.057902.664031 1.535709 1.473535-.463585.006468.02579-.033208.090014.241471.406804.065475 1.706934.850348.944042.916034-2.35303.221563 2.106919 1.63006-.173082.641577 2.224706 1.905177.034226.466958 1.528393.906514-1.612452.228538.355224.033208-.090015.045709.071045.30658.555216 1.239698 2.162964.593396-.525457.182829.284179.066417-.18003.032773.019467.096505 2.164324 1.889261-.91899 2.076883-1.839099-.999672 1.908287 3.760861-2.353271.072449-.044758.826221.402961c1.386275-1.98415 5.538692-9.40922 7.934016-15.852634l.36871-.198005 1.530207-4.797564-.171202.095841 1.459136-6.749249-6.892225-3.237825c.009488-.005658.043436-.006902.052611-.012646l-3.600274-1.677559-.504962-.234089c.973744-1.884354 1.935675-3.979599 2.548846-6.519002.926438-3.836763 1.346208-7.4712323 1.256173-10.2278389-.04502-1.3783053-.252102-2.5343518-.518627-3.4027111-.275773-.89849-1.823427-1.6250554-3.002592-1.6298218z"/>
  <path fill="none" stroke="#000" stroke-width=".054" d="m16.605967 27.869676 23.520444 11.457402 6.984373-3.872536"/>
  <path fill="url(#f)" fill-rule="evenodd" stroke="url(#g)" stroke-linejoin="round" stroke-width=".875" d="m16.625311 28.201253c7.826094 3.743581 15.652191 7.487161 23.478284 11.230742 2.320748-1.256929 4.641496-2.513857 6.962243-3.770786-1.498177 6.888881-7.661859 17.906598-9.388078 20.377304l-.830205-.411993-3.838898 2.412548 1.018068-1.954218-2.084797 1.871032-1.894675.928556-.107792-2.564547-.866207.793766-1.235504-2.166884-.559671-.989139-.949145 1.716584-.476539-1.537394-1.912574-.031046-.651477-2.231412-1.616668.183217-.209664-2.100622-.924163 2.351475-.861156-.939069-.074378-2.291739-1.665758.524501-.936144-2.192754-1.808191.892446-1.554133-1.311236-.714768-1.280581-1.134934.434023-.958525-1.566873c2.436345-2.40574 4.572881-10.829999 5.795449-16.375901z"/>
  <path fill="url(#h)" stroke="url(#i)" stroke-linecap="round" stroke-linejoin="round" stroke-width="1.384" d="m25.047495 17.338121-7.073798 3.881514-1.515918 6.706165 23.701424 11.41127 7.140392-3.943764 1.494431-6.871658z"/>
  <g fill-rule="evenodd">
    <path fill="url(#j)" d="m48.429012 28.748107-1.391729 6.399395-6.917516 3.425855 1.426097-5.936062z"/>
    <path fill="url(#k)" d="m18.3178 21.430609 23.26899 11.181394 6.859508-3.780502-23.374463-11.116569z"/>
    <path fill="url(#l)" d="m36.285818 26.24985c.709454.4428 1.519433.581434 2.12836 1.328402.60893.746967 1.265342 2.44253 1.525214 3.153404.25987.710872.022678.741222.034017 1.111834-2.948013-1.451377-5.896025-2.902754-8.844038-4.354132-.267029-.522484-.713636-1.001801-.801088-1.567451-.08745-.565652.184253-1.217637.27638-1.826455 1.893719.718132 3.787436 1.436265 5.681155 2.154398z" opacity=".1"/>
    <path fill="url(#m)" d="m25 17.4375-6.75 3.6875h-.03125l-1.40625 6.21875c1.77454 1.11546 1.835596-.191281 2.46875-1.5625.61674-1.335671 3.1278-.041833 3.84375-2.03125 3.382977 1.70205 15.417942 2.999151 17.8125 1.5z"/>
    <path fill="url(#n)" d="m30.395303 24.25587c1.974232-.445825 5.325205.997564 6.469546 2.33148.280185.326608-1.776814.645789-3.497679.136807-1.808499-.534024-3.385525-2.37487-2.971867-2.468287z"/>
    <path fill-opacity=".026" d="m30.190079 24.31619c2.130913-.503629 5.673254.828615 6.854437 2.119597.289209.316092-1.926111.696358-3.753126.243077-1.920082-.47549-3.547795-2.257148-3.101311-2.362674z"/>
    <path fill="url(#o)" d="m16.893229 28.818923 23.208287 11.189927-1.965285 6.906889-21.703286-16.087744z"/>
    <path fill="url(#p)" d="m40.090818 40.062441 7.413858-4.099707-1.540795 4.006201-7.069734 4.014748z"/>
  </g>
  <path fill="url(#q)" stroke="url(#r)" stroke-linecap="round" stroke-linejoin="round" stroke-width=".883" d="m40.407111 16.843625c-.926437 3.836761-2.699355 6.990202-4.004503 9.265866-1.842385.259657-3.51758-.226268-5.449693-1.878611-.090037-2.756604-.18463-6.553816.741809-10.390575.926436-3.836762 2.197256-7.1632852 3.502403-9.4389492.652575-1.1378317 1.272896-2.0629436 1.944703-2.5577693.990712-.7297206 3.63595.1821433 4.003647 1.3801296.266525.8683576.460519 2.0241095.505538 3.402414.090038 2.7566071-.317466 6.3807329-1.243904 10.2174949z"/>
  <g fill-rule="evenodd">
    <path fill="url(#s)" d="m37.942154 1.7364527c.469019.2094944.938037.4189911 1.407057.6284853 1.205063 1.2292198-.815647 12.360244-4.779742 15.374593-2.30877 1.755617-1.914557 1.030438-3.234529.789323.852272-5.574727 3.375349-15.0987229 6.607214-16.7924013z"/>
    <g fill-opacity=".048">
      <path d="m12.949377 45.77961 4.454289-9.550809-4.04956 10.188527z"/>
      <path d="m12.892121 45.551295 5.477243-12.589658-4.955087 13.441227z"/>
      <path d="m16.979114 47.612639 2.411086-7.021313-2.138399 7.5141z"/>
      <path d="m16.929593 47.415167 3.52328-9.704312-3.140901 10.380107z"/>
      <path d="m19.306807 49.003754 5.480995-10.17491-5.028648 10.833884z"/>
      <path d="m19.3651 49.236206 3.53685-6.864008-3.236319 7.313011z"/>
      <path d="m21.265218 49.654464 3.53685-6.864009-3.23632 7.313012z"/>
      <path d="m23.144916 51.618271 4.649045-9.547008-4.238819 10.179019z"/>
      <path d="m27.060151 53.381108 6.674066-14.487784-6.062506 15.457447z"/>
      <path d="m27.159194 53.776052 3.987904-9.010783-3.612234 9.618397z"/>
      <path d="m27.225222 54.039346 2.224388-5.365999-2.005003 5.732015z"/>
      <path d="m29.520917 56.075684 6.041991-11.49688-5.535221 12.245667z"/>
      <path d="m29.636466 56.536452 2.324511-4.966754-2.113803 5.298165z"/>
      <path d="m33.970721 56.024778 2.900857-4.29548-2.692996 4.557384z"/>
      <path d="m33.912427 55.792325 5.210574-7.694254-4.837831 8.162989z"/>
      <path d="m36.43774 55.18529 4.368804-7.491909-4.026147 7.967875z"/>
    </g>
  </g>
</svg>
